
=== 2026-04-23T08:59:15.312Z node gen-criaprof.js ortopedista ===

[criaprof:ortopedista] 50 imagens em /home/nmaldaner/projetos/timesmkt3/prj/inema/videos/criaprof/ortopedista_2026-04-23/imgs

── 1/50 ── cena01-ini.png
[inemaimg] model=flux2-klein quality=fast ratio=1:1 (512x512) steps=4
[inemaimg] prompt: Cozy 1980s Brazilian home with a home where an uncle wears a plaster cast on his arm, warm afternoon light spilling thro...
[inemaimg] ✅ saved: /home/nmaldaner/projetos/timesmkt3/prj/inema/videos/criaprof/ortopedista_2026-04-23/imgs/cena01-ini.png  (server=2.15s wall=2.2s vram=32.3GB)
── 2/50 ── cena01-fim.png
[inemaimg] model=flux2-klein quality=fast ratio=1:1 (512x512) steps=4
[inemaimg] prompt: Brazilian man with warm medium skin, short dark hair with silver streaks later, steady precise eyes, strong composed sur...
[inemaimg] ✅ saved: /home/nmaldaner/projetos/timesmkt3/prj/inema/videos/criaprof/ortopedista_2026-04-23/imgs/cena01-fim.png  (server=2.14s wall=2.2s vram=32.3GB)
── 3/50 ── cena02-ini.png
[inemaimg] model=flux2-klein quality=fast ratio=1:1 (512x512) steps=4
[inemaimg] prompt: 1980s brazilian bedroom with a plastic toy skeleton and bandages sitting on a bedspread, old wooden toy shelf behind, wa...
[inemaimg] ✅ saved: /home/nmaldaner/projetos/timesmkt3/prj/inema/videos/criaprof/ortopedista_2026-04-23/imgs/cena02-ini.png  (server=2.12s wall=2.2s vram=32.3GB)
── 4/50 ── cena02-fim.png
[inemaimg] model=flux2-klein quality=fast ratio=1:1 (512x512) steps=4
[inemaimg] prompt: Brazilian man with warm medium skin, short dark hair with silver streaks later, steady precise eyes, strong composed sur...
[inemaimg] ✅ saved: /home/nmaldaner/projetos/timesmkt3/prj/inema/videos/criaprof/ortopedista_2026-04-23/imgs/cena02-fim.png  (server=2.13s wall=2.2s vram=32.3GB)
── 5/50 ── cena03-ini.png
[inemaimg] model=flux2-klein quality=fast ratio=1:1 (512x512) steps=4
[inemaimg] prompt: 1980s brazilian public school classroom with wooden desks, chalkboard with a drawing of a skeleton on the chalkboard, su...
[inemaimg] ✅ saved: /home/nmaldaner/projetos/timesmkt3/prj/inema/videos/criaprof/ortopedista_2026-04-23/imgs/cena03-ini.png  (server=2.13s wall=2.2s vram=32.3GB)
── 6/50 ── cena03-fim.png
[inemaimg] model=flux2-klein quality=fast ratio=1:1 (512x512) steps=4
[inemaimg] prompt: Brazilian man with warm medium skin, short dark hair with silver streaks later, steady precise eyes, strong composed sur...
[inemaimg] ✅ saved: /home/nmaldaner/projetos/timesmkt3/prj/inema/videos/criaprof/ortopedista_2026-04-23/imgs/cena03-fim.png  (server=2.13s wall=2.2s vram=32.3GB)
── 7/50 ── cena04-ini.png
[inemaimg] model=flux2-klein quality=fast ratio=1:1 (512x512) steps=4
[inemaimg] prompt: Warm family living room 1980s with a an old orthopedic anatomy book on a crochet tablecloth, old TV tube in background, ...
[inemaimg] ✅ saved: /home/nmaldaner/projetos/timesmkt3/prj/inema/videos/criaprof/ortopedista_2026-04-23/imgs/cena04-ini.png  (server=2.13s wall=2.2s vram=32.3GB)
── 8/50 ── cena04-fim.png
[inemaimg] model=flux2-klein quality=fast ratio=1:1 (512x512) steps=4
[inemaimg] prompt: Brazilian man with warm medium skin, short dark hair with silver streaks later, steady precise eyes, strong composed sur...
[inemaimg] ✅ saved: /home/nmaldaner/projetos/timesmkt3/prj/inema/videos/criaprof/ortopedista_2026-04-23/imgs/cena04-fim.png  (server=2.12s wall=2.2s vram=32.3GB)
── 9/50 ── cena05-ini.png
[inemaimg] model=flux2-klein quality=fast ratio=1:1 (512x512) steps=4
[inemaimg] prompt: Early 1990s brazilian home scene with a cousin with a suspected broken wrist in the kitchen, muted afternoon light, fami...
[inemaimg] ✅ saved: /home/nmaldaner/projetos/timesmkt3/prj/inema/videos/criaprof/ortopedista_2026-04-23/imgs/cena05-ini.png  (server=2.13s wall=2.2s vram=32.3GB)
── 10/50 ── cena05-fim.png
[inemaimg] model=flux2-klein quality=fast ratio=1:1 (512x512) steps=4
[inemaimg] prompt: Brazilian man with warm medium skin, short dark hair with silver streaks later, steady precise eyes, strong composed sur...
[inemaimg] ✅ saved: /home/nmaldaner/projetos/timesmkt3/prj/inema/videos/criaprof/ortopedista_2026-04-23/imgs/cena05-fim.png  (server=2.12s wall=2.2s vram=32.3GB)
── 11/50 ── cena06-ini.png
[inemaimg] model=flux2-klein quality=fast ratio=1:1 (512x512) steps=4
[inemaimg] prompt: 1990s brazilian classroom with a skeleton anatomy poster on the wall, a notebook open on a wooden desk, afternoon sunlig...
[inemaimg] ✅ saved: /home/nmaldaner/projetos/timesmkt3/prj/inema/videos/criaprof/ortopedista_2026-04-23/imgs/cena06-ini.png  (server=2.12s wall=2.2s vram=32.3GB)
── 12/50 ── cena06-fim.png
[inemaimg] model=flux2-klein quality=fast ratio=1:1 (512x512) steps=4
[inemaimg] prompt: Brazilian man with warm medium skin, short dark hair with silver streaks later, steady precise eyes, strong composed sur...
[inemaimg] ✅ saved: /home/nmaldaner/projetos/timesmkt3/prj/inema/videos/criaprof/ortopedista_2026-04-23/imgs/cena06-fim.png  (server=2.13s wall=2.2s vram=32.3GB)
── 13/50 ── cena07-ini.png
[inemaimg] model=flux2-klein quality=fast ratio=1:1 (512x512) steps=4
[inemaimg] prompt: Late 1990s brazilian teen bedroom with medical books, bandages, anatomy notes, posters on wall, boombox stereo, warm win...
[inemaimg] ✅ saved: /home/nmaldaner/projetos/timesmkt3/prj/inema/videos/criaprof/ortopedista_2026-04-23/imgs/cena07-ini.png  (server=2.12s wall=2.2s vram=32.3GB)
── 14/50 ── cena07-fim.png
[inemaimg] model=flux2-klein quality=fast ratio=1:1 (512x512) steps=4
[inemaimg] prompt: Brazilian man with warm medium skin, short dark hair with silver streaks later, steady precise eyes, strong composed sur...
[inemaimg] ✅ saved: /home/nmaldaner/projetos/timesmkt3/prj/inema/videos/criaprof/ortopedista_2026-04-23/imgs/cena07-fim.png  (server=2.12s wall=2.2s vram=32.3GB)
── 15/50 ── cena08-ini.png
[inemaimg] model=flux2-klein quality=fast ratio=1:1 (512x512) steps=4
[inemaimg] prompt: Late 1990s brazilian dining table with a medicine and orthopedics residency brochure (course catalog, vestibular books),...
[inemaimg] ✅ saved: /home/nmaldaner/projetos/timesmkt3/prj/inema/videos/criaprof/ortopedista_2026-04-23/imgs/cena08-ini.png  (server=2.12s wall=2.2s vram=32.3GB)
── 16/50 ── cena08-fim.png
[inemaimg] model=flux2-klein quality=fast ratio=1:1 (512x512) steps=4
[inemaimg] prompt: Brazilian man with warm medium skin, short dark hair with silver streaks later, steady precise eyes, strong composed sur...
[inemaimg] ✅ saved: /home/nmaldaner/projetos/timesmkt3/prj/inema/videos/criaprof/ortopedista_2026-04-23/imgs/cena08-fim.png  (server=2.13s wall=2.2s vram=32.3GB)
── 17/50 ── cena09-ini.png
[inemaimg] model=flux2-klein quality=fast ratio=1:1 (512x512) steps=4
[inemaimg] prompt: Early 2000s brazilian medical school hallway with bulletin board, backpacks on the floor, natural daylight through tall ...
[inemaimg] ✅ saved: /home/nmaldaner/projetos/timesmkt3/prj/inema/videos/criaprof/ortopedista_2026-04-23/imgs/cena09-ini.png  (server=2.12s wall=2.2s vram=32.3GB)
── 18/50 ── cena09-fim.png
[inemaimg] model=flux2-klein quality=fast ratio=1:1 (512x512) steps=4
[inemaimg] prompt: Brazilian man with warm medium skin, short dark hair with silver streaks later, steady precise eyes, strong composed sur...
[inemaimg] ✅ saved: /home/nmaldaner/projetos/timesmkt3/prj/inema/videos/criaprof/ortopedista_2026-04-23/imgs/cena09-fim.png  (server=2.12s wall=2.2s vram=32.3GB)
── 19/50 ── cena10-ini.png
[inemaimg] model=flux2-klein quality=fast ratio=1:1 (512x512) steps=4
[inemaimg] prompt: University study room with orthopedic surgery textbooks and a skeleton model, notebooks piled, coffee cup, clean dayligh...
[inemaimg] ✅ saved: /home/nmaldaner/projetos/timesmkt3/prj/inema/videos/criaprof/ortopedista_2026-04-23/imgs/cena10-ini.png  (server=2.13s wall=2.2s vram=32.3GB)
── 20/50 ── cena10-fim.png
[inemaimg] model=flux2-klein quality=fast ratio=1:1 (512x512) steps=4
[inemaimg] prompt: Brazilian man with warm medium skin, short dark hair with silver streaks later, steady precise eyes, strong composed sur...
[inemaimg] ✅ saved: /home/nmaldaner/projetos/timesmkt3/prj/inema/videos/criaprof/ortopedista_2026-04-23/imgs/cena10-fim.png  (server=2.12s wall=2.2s vram=32.3GB)
── 21/50 ── cena11-ini.png
[inemaimg] model=flux2-klein quality=fast ratio=1:1 (512x512) steps=4
[inemaimg] prompt: Small small orthopedic clinic with an exam room with x-ray viewer and casting materials, soft neutral daylight, early-ca...
[inemaimg] ✅ saved: /home/nmaldaner/projetos/timesmkt3/prj/inema/videos/criaprof/ortopedista_2026-04-23/imgs/cena11-ini.png  (server=2.13s wall=2.2s vram=32.3GB)
── 22/50 ── cena11-fim.png
[inemaimg] model=flux2-klein quality=fast ratio=1:1 (512x512) steps=4
[inemaimg] prompt: Brazilian man with warm medium skin, short dark hair with silver streaks later, steady precise eyes, strong composed sur...
[inemaimg] ✅ saved: /home/nmaldaner/projetos/timesmkt3/prj/inema/videos/criaprof/ortopedista_2026-04-23/imgs/cena11-fim.png  (server=2.13s wall=2.2s vram=32.3GB)
── 23/50 ── cena12-ini.png
[inemaimg] model=flux2-klein quality=fast ratio=1:1 (512x512) steps=4
[inemaimg] prompt: Early 2000s graduation scene, empty graduation cap and diploma on a table, family photograph nearby, soft warm light, ci...
[inemaimg] ✅ saved: /home/nmaldaner/projetos/timesmkt3/prj/inema/videos/criaprof/ortopedista_2026-04-23/imgs/cena12-ini.png  (server=2.12s wall=2.2s vram=32.3GB)
── 24/50 ── cena12-fim.png
[inemaimg] model=flux2-klein quality=fast ratio=1:1 (512x512) steps=4
[inemaimg] prompt: Brazilian man with warm medium skin, short dark hair with silver streaks later, steady precise eyes, strong composed sur...
[inemaimg] ✅ saved: /home/nmaldaner/projetos/timesmkt3/prj/inema/videos/criaprof/ortopedista_2026-04-23/imgs/cena12-fim.png  (server=2.12s wall=2.2s vram=32.3GB)
── 25/50 ── cena13-ini.png
[inemaimg] model=flux2-klein quality=fast ratio=1:1 (512x512) steps=4
[inemaimg] prompt: modern orthopedic surgery clinic in 2000s with x-ray films and plaster-cast materials on a work surface, warm profession...
[inemaimg] ✅ saved: /home/nmaldaner/projetos/timesmkt3/prj/inema/videos/criaprof/ortopedista_2026-04-23/imgs/cena13-ini.png  (server=2.13s wall=2.2s vram=32.3GB)
── 26/50 ── cena13-fim.png
[inemaimg] model=flux2-klein quality=fast ratio=1:1 (512x512) steps=4
[inemaimg] prompt: Brazilian man with warm medium skin, short dark hair with silver streaks later, steady precise eyes, strong composed sur...
[inemaimg] ✅ saved: /home/nmaldaner/projetos/timesmkt3/prj/inema/videos/criaprof/ortopedista_2026-04-23/imgs/cena13-fim.png  (server=2.13s wall=2.2s vram=32.3GB)
── 27/50 ── cena14-ini.png
[inemaimg] model=flux2-klein quality=fast ratio=1:1 (512x512) steps=4
[inemaimg] prompt: Well-organized modern orthopedic surgery clinic with organized splints, casts, x-ray viewer, surgical instruments, soft ...
[inemaimg] ✅ saved: /home/nmaldaner/projetos/timesmkt3/prj/inema/videos/criaprof/ortopedista_2026-04-23/imgs/cena14-ini.png  (server=2.13s wall=2.2s vram=32.3GB)
── 28/50 ── cena14-fim.png
[inemaimg] model=flux2-klein quality=fast ratio=1:1 (512x512) steps=4
[inemaimg] prompt: Brazilian man with warm medium skin, short dark hair with silver streaks later, steady precise eyes, strong composed sur...
[inemaimg] ✅ saved: /home/nmaldaner/projetos/timesmkt3/prj/inema/videos/criaprof/ortopedista_2026-04-23/imgs/cena14-fim.png  (server=2.13s wall=2.2s vram=32.3GB)
── 29/50 ── cena15-ini.png
[inemaimg] model=flux2-klein quality=fast ratio=1:1 (512x512) steps=4
[inemaimg] prompt: modern orthopedic surgery clinic set up for a post-surgery consultation, chairs or bed positioned, natural light, cinema...
[inemaimg] ✅ saved: /home/nmaldaner/projetos/timesmkt3/prj/inema/videos/criaprof/ortopedista_2026-04-23/imgs/cena15-ini.png  (server=2.12s wall=2.2s vram=32.3GB)
── 30/50 ── cena15-fim.png
[inemaimg] model=flux2-klein quality=fast ratio=1:1 (512x512) steps=4
[inemaimg] prompt: Brazilian man with warm medium skin, short dark hair with silver streaks later, steady precise eyes, strong composed sur...
[inemaimg] ✅ saved: /home/nmaldaner/projetos/timesmkt3/prj/inema/videos/criaprof/ortopedista_2026-04-23/imgs/cena15-fim.png  (server=2.12s wall=2.2s vram=32.3GB)
── 31/50 ── cena16-ini.png
[inemaimg] model=flux2-klein quality=fast ratio=1:1 (512x512) steps=4
[inemaimg] prompt: modern orthopedic surgery clinic in 2010s with a desktop monitor showing digital imaging PACS software, cables visible, ...
[inemaimg] ✅ saved: /home/nmaldaner/projetos/timesmkt3/prj/inema/videos/criaprof/ortopedista_2026-04-23/imgs/cena16-ini.png  (server=2.14s wall=2.2s vram=32.3GB)
── 32/50 ── cena16-fim.png
[inemaimg] model=flux2-klein quality=fast ratio=1:1 (512x512) steps=4
[inemaimg] prompt: Brazilian man with warm medium skin, short dark hair with silver streaks later, steady precise eyes, strong composed sur...
[inemaimg] ✅ saved: /home/nmaldaner/projetos/timesmkt3/prj/inema/videos/criaprof/ortopedista_2026-04-23/imgs/cena16-fim.png  (server=2.13s wall=2.2s vram=32.3GB)
── 33/50 ── cena17-ini.png
[inemaimg] model=flux2-klein quality=fast ratio=1:1 (512x512) steps=4
[inemaimg] prompt: Close-up on a smartphone running a patient physical-therapy adherence app next to x-ray films and plaster-cast materials...
[inemaimg] ✅ saved: /home/nmaldaner/projetos/timesmkt3/prj/inema/videos/criaprof/ortopedista_2026-04-23/imgs/cena17-ini.png  (server=2.13s wall=2.2s vram=32.3GB)
── 34/50 ── cena17-fim.png
[inemaimg] model=flux2-klein quality=fast ratio=1:1 (512x512) steps=4
[inemaimg] prompt: Brazilian man with warm medium skin, short dark hair with silver streaks later, steady precise eyes, strong composed sur...
[inemaimg] ✅ saved: /home/nmaldaner/projetos/timesmkt3/prj/inema/videos/criaprof/ortopedista_2026-04-23/imgs/cena17-fim.png  (server=2.13s wall=2.2s vram=32.3GB)
── 35/50 ── cena18-ini.png
[inemaimg] model=flux2-klein quality=fast ratio=1:1 (512x512) steps=4
[inemaimg] prompt: modern orthopedic surgery clinic with a tripod smartphone set up for injury-prevention educational video, ring light vis...
[inemaimg] ✅ saved: /home/nmaldaner/projetos/timesmkt3/prj/inema/videos/criaprof/ortopedista_2026-04-23/imgs/cena18-ini.png  (server=2.13s wall=2.2s vram=32.3GB)
── 36/50 ── cena18-fim.png
[inemaimg] model=flux2-klein quality=fast ratio=1:1 (512x512) steps=4
[inemaimg] prompt: Brazilian man with warm medium skin, short dark hair with silver streaks later, steady precise eyes, strong composed sur...
[inemaimg] ✅ saved: /home/nmaldaner/projetos/timesmkt3/prj/inema/videos/criaprof/ortopedista_2026-04-23/imgs/cena18-fim.png  (server=2.12s wall=2.2s vram=32.3GB)
── 37/50 ── cena19-ini.png
[inemaimg] model=flux2-klein quality=fast ratio=1:1 (512x512) steps=4
[inemaimg] prompt: Home office with a laptop showing a video-call orthopedic telemedicine consultation, soft daylight, 2020-era improvised ...
[inemaimg] ✅ saved: /home/nmaldaner/projetos/timesmkt3/prj/inema/videos/criaprof/ortopedista_2026-04-23/imgs/cena19-ini.png  (server=2.13s wall=2.2s vram=32.3GB)
── 38/50 ── cena19-fim.png
[inemaimg] model=flux2-klein quality=fast ratio=1:1 (512x512) steps=4
[inemaimg] prompt: Brazilian man with warm medium skin, short dark hair with silver streaks later, steady precise eyes, strong composed sur...
[inemaimg] ✅ saved: /home/nmaldaner/projetos/timesmkt3/prj/inema/videos/criaprof/ortopedista_2026-04-23/imgs/cena19-fim.png  (server=2.13s wall=2.2s vram=32.3GB)
── 39/50 ── cena20-ini.png
[inemaimg] model=flux2-klein quality=fast ratio=1:1 (512x512) steps=4
[inemaimg] prompt: Close-up of a monitor showing a recovery-progress tracking dashboard, modern clinical/professional UI, teal accents, sof...
[inemaimg] ✅ saved: /home/nmaldaner/projetos/timesmkt3/prj/inema/videos/criaprof/ortopedista_2026-04-23/imgs/cena20-ini.png  (server=2.13s wall=2.2s vram=32.3GB)
── 40/50 ── cena20-fim.png
[inemaimg] model=flux2-klein quality=fast ratio=1:1 (512x512) steps=4
[inemaimg] prompt: Brazilian man with warm medium skin, short dark hair with silver streaks later, steady precise eyes, strong composed sur...
[inemaimg] ✅ saved: /home/nmaldaner/projetos/timesmkt3/prj/inema/videos/criaprof/ortopedista_2026-04-23/imgs/cena20-fim.png  (server=2.12s wall=2.2s vram=32.3GB)
── 41/50 ── cena21-ini.png
[inemaimg] model=flux2-klein quality=fast ratio=1:1 (512x512) steps=4
[inemaimg] prompt: Clean modern screen showing an AI fracture-detection imaging tool with personalized output and progress charts, soft tea...
[inemaimg] ✅ saved: /home/nmaldaner/projetos/timesmkt3/prj/inema/videos/criaprof/ortopedista_2026-04-23/imgs/cena21-ini.png  (server=2.12s wall=2.2s vram=32.3GB)
── 42/50 ── cena21-fim.png
[inemaimg] model=flux2-klein quality=fast ratio=1:1 (512x512) steps=4
[inemaimg] prompt: Brazilian man with warm medium skin, short dark hair with silver streaks later, steady precise eyes, strong composed sur...
[inemaimg] ✅ saved: /home/nmaldaner/projetos/timesmkt3/prj/inema/videos/criaprof/ortopedista_2026-04-23/imgs/cena21-fim.png  (server=2.13s wall=2.2s vram=32.3GB)
── 43/50 ── cena22-ini.png
[inemaimg] model=flux2-klein quality=fast ratio=1:1 (512x512) steps=4
[inemaimg] prompt: modern orthopedic surgery clinic with a an AI x-ray analysis overlay on a clinic tablet subtly integrated into the workf...
[inemaimg] ✅ saved: /home/nmaldaner/projetos/timesmkt3/prj/inema/videos/criaprof/ortopedista_2026-04-23/imgs/cena22-ini.png  (server=2.13s wall=2.2s vram=32.3GB)
── 44/50 ── cena22-fim.png
[inemaimg] model=flux2-klein quality=fast ratio=1:1 (512x512) steps=4
[inemaimg] prompt: Brazilian man with warm medium skin, short dark hair with silver streaks later, steady precise eyes, strong composed sur...
[inemaimg] ✅ saved: /home/nmaldaner/projetos/timesmkt3/prj/inema/videos/criaprof/ortopedista_2026-04-23/imgs/cena22-fim.png  (server=2.13s wall=2.2s vram=32.3GB)
── 45/50 ── cena23-ini.png
[inemaimg] model=flux2-klein quality=fast ratio=1:1 (512x512) steps=4
[inemaimg] prompt: modern orthopedic surgery clinic with a junior colleague's notebook open, older mentor's hand gesturing to explain, soft...
[inemaimg] ✅ saved: /home/nmaldaner/projetos/timesmkt3/prj/inema/videos/criaprof/ortopedista_2026-04-23/imgs/cena23-ini.png  (server=2.12s wall=2.2s vram=32.3GB)
── 46/50 ── cena23-fim.png
[inemaimg] model=flux2-klein quality=fast ratio=1:1 (512x512) steps=4
[inemaimg] prompt: Brazilian man with warm medium skin, short dark hair with silver streaks later, steady precise eyes, strong composed sur...
[inemaimg] ✅ saved: /home/nmaldaner/projetos/timesmkt3/prj/inema/videos/criaprof/ortopedista_2026-04-23/imgs/cena23-fim.png  (server=2.13s wall=2.2s vram=32.3GB)
── 47/50 ── cena24-ini.png
[inemaimg] model=flux2-klein quality=fast ratio=1:1 (512x512) steps=4
[inemaimg] prompt: Bright modern modern orthopedic surgery clinic space with equipment and tools in soft out-of-focus background, warm-cool...
[inemaimg] ✅ saved: /home/nmaldaner/projetos/timesmkt3/prj/inema/videos/criaprof/ortopedista_2026-04-23/imgs/cena24-ini.png  (server=2.13s wall=2.2s vram=32.3GB)
── 48/50 ── cena24-fim.png
[inemaimg] model=flux2-klein quality=fast ratio=1:1 (512x512) steps=4
[inemaimg] prompt: Heroic cinematic close-up portrait of the same Brazilian man with warm medium skin, short dark hair with silver streaks ...
[inemaimg] ✅ saved: /home/nmaldaner/projetos/timesmkt3/prj/inema/videos/criaprof/ortopedista_2026-04-23/imgs/cena24-fim.png  (server=2.13s wall=2.2s vram=32.3GB)
── 49/50 ── cena25-ini.png
[inemaimg] model=flux2-klein quality=fast ratio=1:1 (512x512) steps=4
[inemaimg] prompt: Wide cinematic shot of modern orthopedic surgery clinic bathed in golden-hour window light, equipment arranged, sense of...
[inemaimg] ✅ saved: /home/nmaldaner/projetos/timesmkt3/prj/inema/videos/criaprof/ortopedista_2026-04-23/imgs/cena25-ini.png  (server=2.13s wall=2.2s vram=32.3GB)
── 50/50 ── cena25-fim.png
[inemaimg] model=flux2-klein quality=fast ratio=1:1 (512x512) steps=4
[inemaimg] prompt: Wide cinematic shot of the same Brazilian man with warm medium skin, short dark hair with silver streaks later, steady p...
[inemaimg] ✅ saved: /home/nmaldaner/projetos/timesmkt3/prj/inema/videos/criaprof/ortopedista_2026-04-23/imgs/cena25-fim.png  (server=2.13s wall=2.2s vram=32.3GB)

[criaprof:ortopedista] ✅ 50/50 em 110.2s (fails=0)

=== 2026-04-23T09:01:05.530Z node gen-gertran-nostalgia.js ortopedista ===

[gertran-nostalgia:ortopedista] 20 imagens em /home/nmaldaner/projetos/timesmkt3/prj/inema/videos/gertran-nostalgia/ortopedista_2026-04-23/imgs

── 1/20 ── nost01.png
[inemaimg] model=flux2-klein quality=fast ratio=1:1 (512x512) steps=4
[inemaimg] prompt: Close-up of 1980s orthopedic clinic with plaster cast materials and x-ray viewer, shot on 35mm film, cinematic grading, ...
[inemaimg] ✅ saved: /home/nmaldaner/projetos/timesmkt3/prj/inema/videos/gertran-nostalgia/ortopedista_2026-04-23/imgs/nost01.png  (server=2.13s wall=2.2s vram=32.3GB)
── 2/20 ── nost02.png
[inemaimg] model=flux2-klein quality=fast ratio=1:1 (512x512) steps=4
[inemaimg] prompt: Vintage x-ray film of a broken tibia clipped to a backlit viewer, shot on 35mm film, cinematic grading, warm tungsten li...
[inemaimg] ✅ saved: /home/nmaldaner/projetos/timesmkt3/prj/inema/videos/gertran-nostalgia/ortopedista_2026-04-23/imgs/nost02.png  (server=2.13s wall=2.2s vram=32.3GB)
── 3/20 ── nost03.png
[inemaimg] model=flux2-klein quality=fast ratio=1:1 (512x512) steps=4
[inemaimg] prompt: Old brazilian orthopedic clinic with a skeleton model in the corner, shot on 35mm film, cinematic grading, warm tungsten...
[inemaimg] ✅ saved: /home/nmaldaner/projetos/timesmkt3/prj/inema/videos/gertran-nostalgia/ortopedista_2026-04-23/imgs/nost03.png  (server=2.13s wall=2.2s vram=32.3GB)
── 4/20 ── nost04.png
[inemaimg] model=flux2-klein quality=fast ratio=1:1 (512x512) steps=4
[inemaimg] prompt: Early 2000s clinic with a desktop computer running PACS digital imaging, cinematic, shallow depth of field, natural ligh...
[inemaimg] ✅ saved: /home/nmaldaner/projetos/timesmkt3/prj/inema/videos/gertran-nostalgia/ortopedista_2026-04-23/imgs/nost04.png  (server=2.12s wall=2.2s vram=32.3GB)
── 5/20 ── nost05.png
[inemaimg] model=flux2-klein quality=fast ratio=1:1 (512x512) steps=4
[inemaimg] prompt: Close-up of a modern polymer cast replacing traditional plaster, cinematic, shallow depth of field, natural light, edito...
[inemaimg] ✅ saved: /home/nmaldaner/projetos/timesmkt3/prj/inema/videos/gertran-nostalgia/ortopedista_2026-04-23/imgs/nost05.png  (server=2.12s wall=2.2s vram=32.3GB)
── 6/20 ── nost06.png
[inemaimg] model=flux2-klein quality=fast ratio=1:1 (512x512) steps=4
[inemaimg] prompt: A laptop showing an orthopedic teleconsultation with a patient visible, cinematic, shallow depth of field, natural light...
[inemaimg] ✅ saved: /home/nmaldaner/projetos/timesmkt3/prj/inema/videos/gertran-nostalgia/ortopedista_2026-04-23/imgs/nost06.png  (server=2.13s wall=2.2s vram=32.3GB)
── 7/20 ── nost07.png
[inemaimg] model=flux2-klein quality=fast ratio=1:1 (512x512) steps=4
[inemaimg] prompt: Modern tablet showing AI fracture-detection overlay with highlighted break, neo-noir clinical lighting, soft glassmorphi...
[inemaimg] ✅ saved: /home/nmaldaner/projetos/timesmkt3/prj/inema/videos/gertran-nostalgia/ortopedista_2026-04-23/imgs/nost07.png  (server=2.12s wall=2.2s vram=32.3GB)
── 8/20 ── nost08.png
[inemaimg] model=flux2-klein quality=fast ratio=1:1 (512x512) steps=4
[inemaimg] prompt: Orthopedist reviewing AI x-ray analysis on a clinic tablet, neo-noir clinical lighting, soft glassmorphism, teal accents...
[inemaimg] ✅ saved: /home/nmaldaner/projetos/timesmkt3/prj/inema/videos/gertran-nostalgia/ortopedista_2026-04-23/imgs/nost08.png  (server=2.13s wall=2.2s vram=32.3GB)
── 9/20 ── nost09.png
[inemaimg] model=flux2-klein quality=fast ratio=1:1 (512x512) steps=4
[inemaimg] prompt: Cinematic wide shot of a modern orthopedic clinic integrating care and AI imaging, neo-noir clinical lighting, soft glas...
[inemaimg] ✅ saved: /home/nmaldaner/projetos/timesmkt3/prj/inema/videos/gertran-nostalgia/ortopedista_2026-04-23/imgs/nost09.png  (server=2.12s wall=2.2s vram=32.3GB)
── 10/20 ── nost10.png
[inemaimg] model=flux2-klein quality=fast ratio=1:1 (512x512) steps=4
[inemaimg] prompt: Nostalgic 1980s brazilian modern orthopedic surgery clinic with analog tools and warm afternoon light, shot on 35mm film...
[inemaimg] ✅ saved: /home/nmaldaner/projetos/timesmkt3/prj/inema/videos/gertran-nostalgia/ortopedista_2026-04-23/imgs/nost10.png  (server=2.12s wall=2.2s vram=32.3GB)
── 11/20 ── nost11.png
[inemaimg] model=flux2-klein quality=fast ratio=1:1 (512x512) steps=4
[inemaimg] prompt: Close-up of a hand-written note from the 1980s with blue ink, shot on 35mm film, cinematic grading, warm tungsten light,...
[inemaimg] ✅ saved: /home/nmaldaner/projetos/timesmkt3/prj/inema/videos/gertran-nostalgia/ortopedista_2026-04-23/imgs/nost11.png  (server=2.13s wall=2.2s vram=32.3GB)
── 12/20 ── nost12.png
[inemaimg] model=flux2-klein quality=fast ratio=1:1 (512x512) steps=4
[inemaimg] prompt: Vintage x-ray films and plaster-cast materials on a wooden surface, 1980s domestic warmth, shot on 35mm film, cinematic ...
[inemaimg] ✅ saved: /home/nmaldaner/projetos/timesmkt3/prj/inema/videos/gertran-nostalgia/ortopedista_2026-04-23/imgs/nost12.png  (server=2.12s wall=2.2s vram=32.3GB)
── 13/20 ── nost13.png
[inemaimg] model=flux2-klein quality=fast ratio=1:1 (512x512) steps=4
[inemaimg] prompt: Early 2000s modern orthopedic surgery clinic with a desktop computer showing digital imaging PACS software, cinematic, s...
[inemaimg] ✅ saved: /home/nmaldaner/projetos/timesmkt3/prj/inema/videos/gertran-nostalgia/ortopedista_2026-04-23/imgs/nost13.png  (server=2.13s wall=2.2s vram=32.3GB)
── 14/20 ── nost14.png
[inemaimg] model=flux2-klein quality=fast ratio=1:1 (512x512) steps=4
[inemaimg] prompt: Close-up of a smartphone running a patient physical-therapy adherence app next to x-ray films and plaster-cast materials...
[inemaimg] ✅ saved: /home/nmaldaner/projetos/timesmkt3/prj/inema/videos/gertran-nostalgia/ortopedista_2026-04-23/imgs/nost14.png  (server=2.12s wall=2.2s vram=32.3GB)
── 15/20 ── nost15.png
[inemaimg] model=flux2-klein quality=fast ratio=1:1 (512x512) steps=4
[inemaimg] prompt: A laptop showing a orthopedic telemedicine consultation session, 2020-era improvised home workspace, cinematic, shallow ...
[inemaimg] ✅ saved: /home/nmaldaner/projetos/timesmkt3/prj/inema/videos/gertran-nostalgia/ortopedista_2026-04-23/imgs/nost15.png  (server=2.13s wall=2.2s vram=32.3GB)
── 16/20 ── nost16.png
[inemaimg] model=flux2-klein quality=fast ratio=1:1 (512x512) steps=4
[inemaimg] prompt: Modern monitor showing a recovery-progress tracking dashboard with teal UI accents, neo-noir clinical lighting, soft gla...
[inemaimg] ✅ saved: /home/nmaldaner/projetos/timesmkt3/prj/inema/videos/gertran-nostalgia/ortopedista_2026-04-23/imgs/nost16.png  (server=2.13s wall=2.2s vram=32.3GB)
── 17/20 ── nost17.png
[inemaimg] model=flux2-klein quality=fast ratio=1:1 (512x512) steps=4
[inemaimg] prompt: Close-up of an AI x-ray analysis overlay on a clinic tablet running on a tablet, professional hand swiping, neo-noir cli...
[inemaimg] ✅ saved: /home/nmaldaner/projetos/timesmkt3/prj/inema/videos/gertran-nostalgia/ortopedista_2026-04-23/imgs/nost17.png  (server=2.14s wall=2.2s vram=32.3GB)
── 18/20 ── nost18.png
[inemaimg] model=flux2-klein quality=fast ratio=1:1 (512x512) steps=4
[inemaimg] prompt: Cinematic wide shot of a modern modern orthopedic surgery clinic integrating classic expertise and AI technology, neo-no...
[inemaimg] ✅ saved: /home/nmaldaner/projetos/timesmkt3/prj/inema/videos/gertran-nostalgia/ortopedista_2026-04-23/imgs/nost18.png  (server=2.12s wall=2.2s vram=32.3GB)
── 19/20 ── nost19.png
[inemaimg] model=flux2-klein quality=fast ratio=1:1 (512x512) steps=4
[inemaimg] prompt: Nostalgic 1980s brazilian modern orthopedic surgery clinic with analog tools and warm afternoon light, shot on 35mm film...
[inemaimg] ✅ saved: /home/nmaldaner/projetos/timesmkt3/prj/inema/videos/gertran-nostalgia/ortopedista_2026-04-23/imgs/nost19.png  (server=2.13s wall=2.2s vram=32.3GB)
── 20/20 ── nost20.png
[inemaimg] model=flux2-klein quality=fast ratio=1:1 (512x512) steps=4
[inemaimg] prompt: Close-up of a hand-written note from the 1980s with blue ink, shot on 35mm film, cinematic grading, warm tungsten light,...
[inemaimg] ✅ saved: /home/nmaldaner/projetos/timesmkt3/prj/inema/videos/gertran-nostalgia/ortopedista_2026-04-23/imgs/nost20.png  (server=2.13s wall=2.2s vram=32.3GB)

[gertran-nostalgia:ortopedista] ✅ 20/20 em 44.0s (fails=0)

=== 2026-04-23T09:01:49.598Z node pipeline/generate-audio.js /tmp/narr/narr-criaprof-ortopedista.mp3 Você foi a criança que imobilizava o osso quebrado da boneca. Estudou cada articulação, virou ortopedista, devolveu milhares ao movimento. Viu o gesso virar polímero, o raio-X virar digital, a cirurgia virar minimamente invasiva. Agora a IA detecta fratura antes do olho. Você continua sendo o que reduz o osso na mão. Continue aprendendo no Inema ponto CLUB. bella ===
  ✅ Chatterbox VC saved: /tmp/narr/narr-criaprof-ortopedista.mp3 (voice rachel, 359 chars)
✅ Audio saved: /tmp/narr/narr-criaprof-ortopedista.mp3
Provider: chatterbox-vc

=== 2026-04-23T09:01:54.465Z node pipeline/generate-audio.js /tmp/narr/narr-gertran-ortopedista.mp3 Você viu o gesso virar polímero, o raio-X virar AI, a cirurgia virar robótica. Você se adaptou sempre. Agora chegou a inteligência artificial. E você sabe o que fazer. Você é da geração que transforma. Continue aprendendo no Inema ponto CLUB. bella ===
  ✅ Chatterbox VC saved: /tmp/narr/narr-gertran-ortopedista.mp3 (voice rachel, 242 chars)
✅ Audio saved: /tmp/narr/narr-gertran-ortopedista.mp3
Provider: chatterbox-vc

=== 2026-04-23T09:01:58.270Z source /home/nmaldaner/miniconda3/etc/profile.d/conda.sh && conda activate chatterbox && python3 transcribe-words.py /tmp/narr/narr-criaprof-ortopedista.mp3 /tmp/narr/whisper-criaprof-ortopedista.json && python3 transcribe-words.py /tmp/narr/narr-gertran-ortopedista.mp3 /tmp/narr/whisper-gertran-ortopedista.json ===
[whisper] device=cuda loading large-v3...
/home/nmaldaner/miniconda3/envs/chatterbox/lib/python3.11/site-packages/torch/cuda/__init__.py:435: UserWarning: 
    Found GPU0 NVIDIA GB10 which is of cuda capability 12.1.
    Minimum and Maximum cuda capability supported by this version of PyTorch is
    (8.0) - (12.0)
    
  queued_call()
  0%|          | 0/2464 [00:00<?, ?frames/s]100%|██████████| 2464/2464 [00:05<00:00, 463.85frames/s]100%|██████████| 2464/2464 [00:05<00:00, 463.84frames/s]
[whisper] 60 palavras -> 16 chunks -> /tmp/narr/whisper-criaprof-ortopedista.json
[whisper] device=cuda loading large-v3...
/home/nmaldaner/miniconda3/envs/chatterbox/lib/python3.11/site-packages/torch/cuda/__init__.py:435: UserWarning: 
    Found GPU0 NVIDIA GB10 which is of cuda capability 12.1.
    Minimum and Maximum cuda capability supported by this version of PyTorch is
    (8.0) - (12.0)
    
  queued_call()
  0%|          | 0/1776 [00:00<?, ?frames/s]100%|██████████| 1776/1776 [00:04<00:00, 423.16frames/s]100%|██████████| 1776/1776 [00:04<00:00, 423.15frames/s]
[whisper] 42 palavras -> 11 chunks -> /tmp/narr/whisper-gertran-ortopedista.json

=== 2026-04-23T09:02:28.051Z node render-criaprof.js ortopedista ===
[ortopedista] detectou N_SCENES=25
[ortopedista] 16 captions via whisper (offset +0.8s)
[ortopedista] render -> /home/nmaldaner/projetos/timesmkt3/prj/inema/videos/criaprof/ortopedista_2026-04-23/video/ortopedista-criaprof.mp4
ffmpeg version 6.1.1-3ubuntu5 Copyright (c) 2000-2023 the FFmpeg developers
  built with gcc 13 (Ubuntu 13.2.0-23ubuntu3)
  configuration: --prefix=/usr --extra-version=3ubuntu5 --toolchain=hardened --libdir=/usr/lib/aarch64-linux-gnu --incdir=/usr/include/aarch64-linux-gnu --arch=arm64 --enable-gpl --disable-stripping --disable-omx --enable-gnutls --enable-libaom --enable-libass --enable-libbs2b --enable-libcaca --enable-libcdio --enable-libcodec2 --enable-libdav1d --enable-libflite --enable-libfontconfig --enable-libfreetype --enable-libfribidi --enable-libglslang --enable-libgme --enable-libgsm --enable-libharfbuzz --enable-libmp3lame --enable-libmysofa --enable-libopenjpeg --enable-libopenmpt --enable-libopus --enable-librubberband --enable-libshine --enable-libsnappy --enable-libsoxr --enable-libspeex --enable-libtheora --enable-libtwolame --enable-libvidstab --enable-libvorbis --enable-libvpx --enable-libwebp --enable-libx265 --enable-libxml2 --enable-libxvid --enable-libzimg --enable-openal --enable-opencl --enable-opengl --disable-sndio --enable-libdc1394 --enable-libdrm --enable-libiec61883 --enable-chromaprint --enable-frei0r --enable-ladspa --enable-libbluray --enable-libjack --enable-libpulse --enable-librabbitmq --enable-librist --enable-libsrt --enable-libssh --enable-libsvtav1 --enable-libx264 --enable-libzmq --enable-libzvbi --enable-lv2 --enable-sdl2 --enable-libplacebo --enable-librav1e --enable-pocketsphinx --enable-librsvg --enable-libjxl --enable-shared
  libavutil      58. 29.100 / 58. 29.100
  libavcodec     60. 31.102 / 60. 31.102
  libavformat    60. 16.100 / 60. 16.100
  libavdevice    60.  3.100 / 60.  3.100
  libavfilter     9. 12.100 /  9. 12.100
  libswscale      7.  5.100 /  7.  5.100
  libswresample   4. 12.100 /  4. 12.100
  libpostproc    57.  3.100 / 57.  3.100
Input #0, png_pipe, from '/home/nmaldaner/projetos/timesmkt3/prj/inema/videos/criaprof/ortopedista_2026-04-23/imgs/cena01-ini.png':
  Duration: N/A, bitrate: N/A
  Stream #0:0: Video: png, rgb24(pc, gbr/unknown/unknown), 512x512, 1 fps, 1 tbr, 1 tbn
Input #1, png_pipe, from '/home/nmaldaner/projetos/timesmkt3/prj/inema/videos/criaprof/ortopedista_2026-04-23/imgs/cena01-fim.png':
  Duration: N/A, bitrate: N/A
  Stream #1:0: Video: png, rgb24(pc, gbr/unknown/unknown), 512x512, 1 fps, 1 tbr, 1 tbn
Input #2, png_pipe, from '/home/nmaldaner/projetos/timesmkt3/prj/inema/videos/criaprof/ortopedista_2026-04-23/imgs/cena02-ini.png':
  Duration: N/A, bitrate: N/A
  Stream #2:0: Video: png, rgb24(pc, gbr/unknown/unknown), 512x512, 1 fps, 1 tbr, 1 tbn
Input #3, png_pipe, from '/home/nmaldaner/projetos/timesmkt3/prj/inema/videos/criaprof/ortopedista_2026-04-23/imgs/cena02-fim.png':
  Duration: N/A, bitrate: N/A
  Stream #3:0: Video: png, rgb24(pc, gbr/unknown/unknown), 512x512, 1 fps, 1 tbr, 1 tbn
Input #4, png_pipe, from '/home/nmaldaner/projetos/timesmkt3/prj/inema/videos/criaprof/ortopedista_2026-04-23/imgs/cena03-ini.png':
  Duration: N/A, bitrate: N/A
  Stream #4:0: Video: png, rgb24(pc, gbr/unknown/unknown), 512x512, 1 fps, 1 tbr, 1 tbn
Input #5, png_pipe, from '/home/nmaldaner/projetos/timesmkt3/prj/inema/videos/criaprof/ortopedista_2026-04-23/imgs/cena03-fim.png':
  Duration: N/A, bitrate: N/A
  Stream #5:0: Video: png, rgb24(pc, gbr/unknown/unknown), 512x512, 1 fps, 1 tbr, 1 tbn
Input #6, png_pipe, from '/home/nmaldaner/projetos/timesmkt3/prj/inema/videos/criaprof/ortopedista_2026-04-23/imgs/cena04-ini.png':
  Duration: N/A, bitrate: N/A
  Stream #6:0: Video: png, rgb24(pc, gbr/unknown/unknown), 512x512, 1 fps, 1 tbr, 1 tbn
Input #7, png_pipe, from '/home/nmaldaner/projetos/timesmkt3/prj/inema/videos/criaprof/ortopedista_2026-04-23/imgs/cena04-fim.png':
  Duration: N/A, bitrate: N/A
  Stream #7:0: Video: png, rgb24(pc, gbr/unknown/unknown), 512x512, 1 fps, 1 tbr, 1 tbn
Input #8, png_pipe, from '/home/nmaldaner/projetos/timesmkt3/prj/inema/videos/criaprof/ortopedista_2026-04-23/imgs/cena05-ini.png':
  Duration: N/A, bitrate: N/A
  Stream #8:0: Video: png, rgb24(pc, gbr/unknown/unknown), 512x512, 1 fps, 1 tbr, 1 tbn
Input #9, png_pipe, from '/home/nmaldaner/projetos/timesmkt3/prj/inema/videos/criaprof/ortopedista_2026-04-23/imgs/cena05-fim.png':
  Duration: N/A, bitrate: N/A
  Stream #9:0: Video: png, rgb24(pc, gbr/unknown/unknown), 512x512, 1 fps, 1 tbr, 1 tbn
Input #10, png_pipe, from '/home/nmaldaner/projetos/timesmkt3/prj/inema/videos/criaprof/ortopedista_2026-04-23/imgs/cena06-ini.png':
  Duration: N/A, bitrate: N/A
  Stream #10:0: Video: png, rgb24(pc, gbr/unknown/unknown), 512x512, 1 fps, 1 tbr, 1 tbn
Input #11, png_pipe, from '/home/nmaldaner/projetos/timesmkt3/prj/inema/videos/criaprof/ortopedista_2026-04-23/imgs/cena06-fim.png':
  Duration: N/A, bitrate: N/A
  Stream #11:0: Video: png, rgb24(pc, gbr/unknown/unknown), 512x512, 1 fps, 1 tbr, 1 tbn
Input #12, png_pipe, from '/home/nmaldaner/projetos/timesmkt3/prj/inema/videos/criaprof/ortopedista_2026-04-23/imgs/cena07-ini.png':
  Duration: N/A, bitrate: N/A
  Stream #12:0: Video: png, rgb24(pc, gbr/unknown/unknown), 512x512, 1 fps, 1 tbr, 1 tbn
Input #13, png_pipe, from '/home/nmaldaner/projetos/timesmkt3/prj/inema/videos/criaprof/ortopedista_2026-04-23/imgs/cena07-fim.png':
  Duration: N/A, bitrate: N/A
  Stream #13:0: Video: png, rgb24(pc, gbr/unknown/unknown), 512x512, 1 fps, 1 tbr, 1 tbn
Input #14, png_pipe, from '/home/nmaldaner/projetos/timesmkt3/prj/inema/videos/criaprof/ortopedista_2026-04-23/imgs/cena08-ini.png':
  Duration: N/A, bitrate: N/A
  Stream #14:0: Video: png, rgb24(pc, gbr/unknown/unknown), 512x512, 1 fps, 1 tbr, 1 tbn
Input #15, png_pipe, from '/home/nmaldaner/projetos/timesmkt3/prj/inema/videos/criaprof/ortopedista_2026-04-23/imgs/cena08-fim.png':
  Duration: N/A, bitrate: N/A
  Stream #15:0: Video: png, rgb24(pc, gbr/unknown/unknown), 512x512, 1 fps, 1 tbr, 1 tbn
Input #16, png_pipe, from '/home/nmaldaner/projetos/timesmkt3/prj/inema/videos/criaprof/ortopedista_2026-04-23/imgs/cena09-ini.png':
  Duration: N/A, bitrate: N/A
  Stream #16:0: Video: png, rgb24(pc, gbr/unknown/unknown), 512x512, 1 fps, 1 tbr, 1 tbn
Input #17, png_pipe, from '/home/nmaldaner/projetos/timesmkt3/prj/inema/videos/criaprof/ortopedista_2026-04-23/imgs/cena09-fim.png':
  Duration: N/A, bitrate: N/A
  Stream #17:0: Video: png, rgb24(pc, gbr/unknown/unknown), 512x512, 1 fps, 1 tbr, 1 tbn
Input #18, png_pipe, from '/home/nmaldaner/projetos/timesmkt3/prj/inema/videos/criaprof/ortopedista_2026-04-23/imgs/cena10-ini.png':
  Duration: N/A, bitrate: N/A
  Stream #18:0: Video: png, rgb24(pc, gbr/unknown/unknown), 512x512, 1 fps, 1 tbr, 1 tbn
Input #19, png_pipe, from '/home/nmaldaner/projetos/timesmkt3/prj/inema/videos/criaprof/ortopedista_2026-04-23/imgs/cena10-fim.png':
  Duration: N/A, bitrate: N/A
  Stream #19:0: Video: png, rgb24(pc, gbr/unknown/unknown), 512x512, 1 fps, 1 tbr, 1 tbn
Input #20, png_pipe, from '/home/nmaldaner/projetos/timesmkt3/prj/inema/videos/criaprof/ortopedista_2026-04-23/imgs/cena11-ini.png':
  Duration: N/A, bitrate: N/A
  Stream #20:0: Video: png, rgb24(pc, gbr/unknown/unknown), 512x512, 1 fps, 1 tbr, 1 tbn
Input #21, png_pipe, from '/home/nmaldaner/projetos/timesmkt3/prj/inema/videos/criaprof/ortopedista_2026-04-23/imgs/cena11-fim.png':
  Duration: N/A, bitrate: N/A
  Stream #21:0: Video: png, rgb24(pc, gbr/unknown/unknown), 512x512, 1 fps, 1 tbr, 1 tbn
Input #22, png_pipe, from '/home/nmaldaner/projetos/timesmkt3/prj/inema/videos/criaprof/ortopedista_2026-04-23/imgs/cena12-ini.png':
  Duration: N/A, bitrate: N/A
  Stream #22:0: Video: png, rgb24(pc, gbr/unknown/unknown), 512x512, 1 fps, 1 tbr, 1 tbn
Input #23, png_pipe, from '/home/nmaldaner/projetos/timesmkt3/prj/inema/videos/criaprof/ortopedista_2026-04-23/imgs/cena12-fim.png':
  Duration: N/A, bitrate: N/A
  Stream #23:0: Video: png, rgb24(pc, gbr/unknown/unknown), 512x512, 1 fps, 1 tbr, 1 tbn
Input #24, png_pipe, from '/home/nmaldaner/projetos/timesmkt3/prj/inema/videos/criaprof/ortopedista_2026-04-23/imgs/cena13-ini.png':
  Duration: N/A, bitrate: N/A
  Stream #24:0: Video: png, rgb24(pc, gbr/unknown/unknown), 512x512, 1 fps, 1 tbr, 1 tbn
Input #25, png_pipe, from '/home/nmaldaner/projetos/timesmkt3/prj/inema/videos/criaprof/ortopedista_2026-04-23/imgs/cena13-fim.png':
  Duration: N/A, bitrate: N/A
  Stream #25:0: Video: png, rgb24(pc, gbr/unknown/unknown), 512x512, 1 fps, 1 tbr, 1 tbn
Input #26, png_pipe, from '/home/nmaldaner/projetos/timesmkt3/prj/inema/videos/criaprof/ortopedista_2026-04-23/imgs/cena14-ini.png':
  Duration: N/A, bitrate: N/A
  Stream #26:0: Video: png, rgb24(pc, gbr/unknown/unknown), 512x512, 1 fps, 1 tbr, 1 tbn
Input #27, png_pipe, from '/home/nmaldaner/projetos/timesmkt3/prj/inema/videos/criaprof/ortopedista_2026-04-23/imgs/cena14-fim.png':
  Duration: N/A, bitrate: N/A
  Stream #27:0: Video: png, rgb24(pc, gbr/unknown/unknown), 512x512, 1 fps, 1 tbr, 1 tbn
Input #28, png_pipe, from '/home/nmaldaner/projetos/timesmkt3/prj/inema/videos/criaprof/ortopedista_2026-04-23/imgs/cena15-ini.png':
  Duration: N/A, bitrate: N/A
  Stream #28:0: Video: png, rgb24(pc, gbr/unknown/unknown), 512x512, 1 fps, 1 tbr, 1 tbn
Input #29, png_pipe, from '/home/nmaldaner/projetos/timesmkt3/prj/inema/videos/criaprof/ortopedista_2026-04-23/imgs/cena15-fim.png':
  Duration: N/A, bitrate: N/A
  Stream #29:0: Video: png, rgb24(pc, gbr/unknown/unknown), 512x512, 1 fps, 1 tbr, 1 tbn
Input #30, png_pipe, from '/home/nmaldaner/projetos/timesmkt3/prj/inema/videos/criaprof/ortopedista_2026-04-23/imgs/cena16-ini.png':
  Duration: N/A, bitrate: N/A
  Stream #30:0: Video: png, rgb24(pc, gbr/unknown/unknown), 512x512, 1 fps, 1 tbr, 1 tbn
Input #31, png_pipe, from '/home/nmaldaner/projetos/timesmkt3/prj/inema/videos/criaprof/ortopedista_2026-04-23/imgs/cena16-fim.png':
  Duration: N/A, bitrate: N/A
  Stream #31:0: Video: png, rgb24(pc, gbr/unknown/unknown), 512x512, 1 fps, 1 tbr, 1 tbn
Input #32, png_pipe, from '/home/nmaldaner/projetos/timesmkt3/prj/inema/videos/criaprof/ortopedista_2026-04-23/imgs/cena17-ini.png':
  Duration: N/A, bitrate: N/A
  Stream #32:0: Video: png, rgb24(pc, gbr/unknown/unknown), 512x512, 1 fps, 1 tbr, 1 tbn
Input #33, png_pipe, from '/home/nmaldaner/projetos/timesmkt3/prj/inema/videos/criaprof/ortopedista_2026-04-23/imgs/cena17-fim.png':
  Duration: N/A, bitrate: N/A
  Stream #33:0: Video: png, rgb24(pc, gbr/unknown/unknown), 512x512, 1 fps, 1 tbr, 1 tbn
Input #34, png_pipe, from '/home/nmaldaner/projetos/timesmkt3/prj/inema/videos/criaprof/ortopedista_2026-04-23/imgs/cena18-ini.png':
  Duration: N/A, bitrate: N/A
  Stream #34:0: Video: png, rgb24(pc, gbr/unknown/unknown), 512x512, 1 fps, 1 tbr, 1 tbn
Input #35, png_pipe, from '/home/nmaldaner/projetos/timesmkt3/prj/inema/videos/criaprof/ortopedista_2026-04-23/imgs/cena18-fim.png':
  Duration: N/A, bitrate: N/A
  Stream #35:0: Video: png, rgb24(pc, gbr/unknown/unknown), 512x512, 1 fps, 1 tbr, 1 tbn
Input #36, png_pipe, from '/home/nmaldaner/projetos/timesmkt3/prj/inema/videos/criaprof/ortopedista_2026-04-23/imgs/cena19-ini.png':
  Duration: N/A, bitrate: N/A
  Stream #36:0: Video: png, rgb24(pc, gbr/unknown/unknown), 512x512, 1 fps, 1 tbr, 1 tbn
Input #37, png_pipe, from '/home/nmaldaner/projetos/timesmkt3/prj/inema/videos/criaprof/ortopedista_2026-04-23/imgs/cena19-fim.png':
  Duration: N/A, bitrate: N/A
  Stream #37:0: Video: png, rgb24(pc, gbr/unknown/unknown), 512x512, 1 fps, 1 tbr, 1 tbn
Input #38, png_pipe, from '/home/nmaldaner/projetos/timesmkt3/prj/inema/videos/criaprof/ortopedista_2026-04-23/imgs/cena20-ini.png':
  Duration: N/A, bitrate: N/A
  Stream #38:0: Video: png, rgb24(pc, gbr/unknown/unknown), 512x512, 1 fps, 1 tbr, 1 tbn
Input #39, png_pipe, from '/home/nmaldaner/projetos/timesmkt3/prj/inema/videos/criaprof/ortopedista_2026-04-23/imgs/cena20-fim.png':
  Duration: N/A, bitrate: N/A
  Stream #39:0: Video: png, rgb24(pc, gbr/unknown/unknown), 512x512, 1 fps, 1 tbr, 1 tbn
Input #40, png_pipe, from '/home/nmaldaner/projetos/timesmkt3/prj/inema/videos/criaprof/ortopedista_2026-04-23/imgs/cena21-ini.png':
  Duration: N/A, bitrate: N/A
  Stream #40:0: Video: png, rgb24(pc, gbr/unknown/unknown), 512x512, 1 fps, 1 tbr, 1 tbn
Input #41, png_pipe, from '/home/nmaldaner/projetos/timesmkt3/prj/inema/videos/criaprof/ortopedista_2026-04-23/imgs/cena21-fim.png':
  Duration: N/A, bitrate: N/A
  Stream #41:0: Video: png, rgb24(pc, gbr/unknown/unknown), 512x512, 1 fps, 1 tbr, 1 tbn
Input #42, png_pipe, from '/home/nmaldaner/projetos/timesmkt3/prj/inema/videos/criaprof/ortopedista_2026-04-23/imgs/cena22-ini.png':
  Duration: N/A, bitrate: N/A
  Stream #42:0: Video: png, rgb24(pc, gbr/unknown/unknown), 512x512, 1 fps, 1 tbr, 1 tbn
Input #43, png_pipe, from '/home/nmaldaner/projetos/timesmkt3/prj/inema/videos/criaprof/ortopedista_2026-04-23/imgs/cena22-fim.png':
  Duration: N/A, bitrate: N/A
  Stream #43:0: Video: png, rgb24(pc, gbr/unknown/unknown), 512x512, 1 fps, 1 tbr, 1 tbn
Input #44, png_pipe, from '/home/nmaldaner/projetos/timesmkt3/prj/inema/videos/criaprof/ortopedista_2026-04-23/imgs/cena23-ini.png':
  Duration: N/A, bitrate: N/A
  Stream #44:0: Video: png, rgb24(pc, gbr/unknown/unknown), 512x512, 1 fps, 1 tbr, 1 tbn
Input #45, png_pipe, from '/home/nmaldaner/projetos/timesmkt3/prj/inema/videos/criaprof/ortopedista_2026-04-23/imgs/cena23-fim.png':
  Duration: N/A, bitrate: N/A
  Stream #45:0: Video: png, rgb24(pc, gbr/unknown/unknown), 512x512, 1 fps, 1 tbr, 1 tbn
Input #46, png_pipe, from '/home/nmaldaner/projetos/timesmkt3/prj/inema/videos/criaprof/ortopedista_2026-04-23/imgs/cena24-ini.png':
  Duration: N/A, bitrate: N/A
  Stream #46:0: Video: png, rgb24(pc, gbr/unknown/unknown), 512x512, 1 fps, 1 tbr, 1 tbn
Input #47, png_pipe, from '/home/nmaldaner/projetos/timesmkt3/prj/inema/videos/criaprof/ortopedista_2026-04-23/imgs/cena24-fim.png':
  Duration: N/A, bitrate: N/A
  Stream #47:0: Video: png, rgb24(pc, gbr/unknown/unknown), 512x512, 1 fps, 1 tbr, 1 tbn
Input #48, png_pipe, from '/home/nmaldaner/projetos/timesmkt3/prj/inema/videos/criaprof/ortopedista_2026-04-23/imgs/cena25-ini.png':
  Duration: N/A, bitrate: N/A
  Stream #48:0: Video: png, rgb24(pc, gbr/unknown/unknown), 512x512, 1 fps, 1 tbr, 1 tbn
Input #49, png_pipe, from '/home/nmaldaner/projetos/timesmkt3/prj/inema/videos/criaprof/ortopedista_2026-04-23/imgs/cena25-fim.png':
  Duration: N/A, bitrate: N/A
  Stream #49:0: Video: png, rgb24(pc, gbr/unknown/unknown), 512x512, 1 fps, 1 tbr, 1 tbn
Input #50, mp3, from '/tmp/musica_video/mulheres/freesound_719036_Melancholy_Background_Piano__-_bpm_112_l.mp3':
  Duration: 00:01:08.60, start: 0.025057, bitrate: 191 kb/s
  Stream #50:0: Audio: mp3, 44100 Hz, stereo, fltp, 191 kb/s
    Metadata:
      encoder         : LAME3.100
    Side data:
      replaygain: track gain - -5.600000, track peak - unknown, album gain - unknown, album peak - unknown, 
Input #51, mp3, from '/tmp/narr/narr-criaprof-ortopedista.mp3':
  Metadata:
    encoder         : Lavf60.16.100
  Duration: 00:00:24.70, start: 0.046042, bitrate: 128 kb/s
  Stream #51:0: Audio: mp3, 24000 Hz, mono, fltp, 128 kb/s
Stream mapping:
  Stream #0:0 (png) -> zoompan:default
  Stream #1:0 (png) -> zoompan:default
  Stream #2:0 (png) -> zoompan:default
  Stream #3:0 (png) -> zoompan:default
  Stream #4:0 (png) -> zoompan:default
  Stream #5:0 (png) -> zoompan:default
  Stream #6:0 (png) -> zoompan:default
  Stream #7:0 (png) -> zoompan:default
  Stream #8:0 (png) -> zoompan:default
  Stream #9:0 (png) -> zoompan:default
  Stream #10:0 (png) -> zoompan:default
  Stream #11:0 (png) -> zoompan:default
  Stream #12:0 (png) -> zoompan:default
  Stream #13:0 (png) -> zoompan:default
  Stream #14:0 (png) -> zoompan:default
  Stream #15:0 (png) -> zoompan:default
  Stream #16:0 (png) -> zoompan:default
  Stream #17:0 (png) -> zoompan:default
  Stream #18:0 (png) -> zoompan:default
  Stream #19:0 (png) -> zoompan:default
  Stream #20:0 (png) -> zoompan:default
  Stream #21:0 (png) -> zoompan:default
  Stream #22:0 (png) -> zoompan:default
  Stream #23:0 (png) -> zoompan:default
  Stream #24:0 (png) -> zoompan:default
  Stream #25:0 (png) -> zoompan:default
  Stream #26:0 (png) -> zoompan:default
  Stream #27:0 (png) -> zoompan:default
  Stream #28:0 (png) -> zoompan:default
  Stream #29:0 (png) -> zoompan:default
  Stream #30:0 (png) -> zoompan:default
  Stream #31:0 (png) -> zoompan:default
  Stream #32:0 (png) -> zoompan:default
  Stream #33:0 (png) -> zoompan:default
  Stream #34:0 (png) -> zoompan:default
  Stream #35:0 (png) -> zoompan:default
  Stream #36:0 (png) -> zoompan:default
  Stream #37:0 (png) -> zoompan:default
  Stream #38:0 (png) -> zoompan:default
  Stream #39:0 (png) -> zoompan:default
  Stream #40:0 (png) -> zoompan:default
  Stream #41:0 (png) -> zoompan:default
  Stream #42:0 (png) -> zoompan:default
  Stream #43:0 (png) -> zoompan:default
  Stream #44:0 (png) -> zoompan:default
  Stream #45:0 (png) -> zoompan:default
  Stream #46:0 (png) -> zoompan:default
  Stream #47:0 (png) -> zoompan:default
  Stream #48:0 (png) -> zoompan:default
  Stream #49:0 (png) -> zoompan:default
  Stream #50:0 (mp3float) -> atrim:default
  Stream #51:0 (mp3float) -> adelay:default
  drawtext:default -> Stream #0:0 (libx264)
  asetpts:default -> Stream #0:1 (aac)
Press [q] to stop, [?] for help
[libx264 @ 0xbcf76d486f40] using cpu capabilities: ARMv8 NEON
[libx264 @ 0xbcf76d486f40] profile High, level 3.2, 4:2:0, 8-bit
[libx264 @ 0xbcf76d486f40] 264 - core 164 r3108 31e19f9 - H.264/MPEG-4 AVC codec - Copyleft 2003-2023 - http://www.videolan.org/x264.html - options: cabac=1 ref=3 deblock=1:0:0 analyse=0x3:0x113 me=hex subme=7 psy=1 psy_rd=1.00:0.00 mixed_ref=1 me_range=16 chroma_me=1 trellis=1 8x8dct=1 cqm=0 deadzone=21,11 fast_pskip=1 chroma_qp_offset=-2 threads=30 lookahead_threads=5 sliced_threads=0 nr=0 decimate=1 interlaced=0 bluray_compat=0 constrained_intra=0 bframes=3 b_pyramid=2 b_adapt=1 b_bias=0 direct=1 weightb=1 open_gop=0 weightp=2 keyint=250 keyint_min=25 scenecut=40 intra_refresh=0 rc_lookahead=40 rc=crf mbtree=1 crf=20.0 qcomp=0.60 qpmin=0 qpmax=69 qpstep=4 ip_ratio=1.40 aq=1:1.00
Output #0, mp4, to '/home/nmaldaner/projetos/timesmkt3/prj/inema/videos/criaprof/ortopedista_2026-04-23/video/ortopedista-criaprof.mp4':
  Metadata:
    encoder         : Lavf60.16.100
  Stream #0:0: Video: h264 (avc1 / 0x31637661), yuv420p(progressive), 1080x1080, q=2-31, 30 fps, 15360 tbn
    Metadata:
      encoder         : Lavc60.31.102 libx264
    Side data:
      cpb: bitrate max/min/avg: 0/0/0 buffer size: 0 vbv_delay: N/A
  Stream #0:1: Audio: aac (LC) (mp4a / 0x6134706D), 44100 Hz, stereo, fltp, 192 kb/s
    Metadata:
      encoder         : Lavc60.31.102 aac
frame=    0 fps=0.0 q=0.0 size=       0kB time=N/A bitrate=N/A speed=N/A    frame=    0 fps=0.0 q=0.0 size=       0kB time=00:00:01.43 bitrate=   0.3kbits/s speed=1.73x    frame=  134 fps= 99 q=23.0 size=    1280kB time=00:00:06.82 bitrate=1536.1kbits/s speed=5.06x    frame=  319 fps=172 q=26.0 size=    3584kB time=00:00:13.00 bitrate=2257.9kbits/s speed=7.03x    frame=  491 fps=209 q=26.0 size=    5120kB time=00:00:18.73 bitrate=2238.4kbits/s speed=7.97x    frame=  664 fps=233 q=26.0 size=    6400kB time=00:00:24.49 bitrate=2140.2kbits/s speed=8.59x    frame=  830 fps=248 q=26.0 size=    7424kB time=00:00:30.04 bitrate=2024.1kbits/s speed=8.96x    frame=  983 fps=255 q=26.0 size=    8704kB time=00:00:35.15 bitrate=2028.3kbits/s speed=9.12x    frame= 1143 fps=262 q=26.0 size=    9728kB time=00:00:40.49 bitrate=1967.9kbits/s speed= 9.3x    [mp4 @ 0xbcf76d485f50] Starting second pass: moving the moov atom to the beginning of the file
[out#0/mp4 @ 0xbcf76d485de0] video:10303kB audio:1080kB subtitle:0kB other streams:0kB global headers:0kB muxing overhead: 0.431898%
frame= 1350 fps=265 q=-1.0 Lsize=   11432kB time=00:00:44.97 bitrate=2082.2kbits/s speed=8.83x    
[libx264 @ 0xbcf76d486f40] frame I:34    Avg QP:15.29  size:111805
[libx264 @ 0xbcf76d486f40] frame P:348   Avg QP:19.55  size: 11799
[libx264 @ 0xbcf76d486f40] frame B:968   Avg QP:23.23  size:  2729
[libx264 @ 0xbcf76d486f40] consecutive B-frames:  3.3%  3.4%  0.0% 93.3%
[libx264 @ 0xbcf76d486f40] mb I  I16..4:  8.3% 79.0% 12.6%
[libx264 @ 0xbcf76d486f40] mb P  I16..4:  0.7%  4.1%  0.6%  P16..4: 36.4%  9.3%  4.8%  0.0%  0.0%    skip:44.1%
[libx264 @ 0xbcf76d486f40] mb B  I16..4:  0.0%  0.0%  0.0%  B16..8: 37.1%  0.7%  0.1%  direct: 0.8%  skip:61.2%  L0:55.1% L1:44.2% BI: 0.7%
[libx264 @ 0xbcf76d486f40] 8x8 transform intra:77.7% inter:93.7%
[libx264 @ 0xbcf76d486f40] coded y,uvDC,uvAC intra: 84.4% 80.7% 60.5% inter: 4.1% 8.4% 0.6%
[libx264 @ 0xbcf76d486f40] i16 v,h,dc,p: 31% 12%  3% 54%
[libx264 @ 0xbcf76d486f40] i8 v,h,dc,ddl,ddr,vr,hd,vl,hu: 21% 21% 17%  5%  7%  7%  7%  7%  8%
[libx264 @ 0xbcf76d486f40] i4 v,h,dc,ddl,ddr,vr,hd,vl,hu: 25% 20% 12%  5% 10%  8%  9%  6%  5%
[libx264 @ 0xbcf76d486f40] i8c dc,h,v,p: 41% 25% 25%  9%
[libx264 @ 0xbcf76d486f40] Weighted P-Frames: Y:0.0% UV:0.0%
[libx264 @ 0xbcf76d486f40] ref P L0: 76.6%  8.1%  9.1%  6.2%
[libx264 @ 0xbcf76d486f40] ref B L0: 91.2%  7.6%  1.2%
[libx264 @ 0xbcf76d486f40] ref B L1: 96.6%  3.4%
[libx264 @ 0xbcf76d486f40] kb/s:1875.43
[aac @ 0xbcf76d4888b0] Qavg: 596.651
[ortopedista] ✅ 11.2 MB em 5.5s

=== 2026-04-23T09:02:33.608Z node render-gertran.js ortopedista ===
[gertran ortopedista] render -> /home/nmaldaner/projetos/timesmkt3/prj/inema/videos/gertran/ortopedista_2026-04-23/video/gertran-ortopedista-31s.mp4
ffmpeg version 6.1.1-3ubuntu5 Copyright (c) 2000-2023 the FFmpeg developers
  built with gcc 13 (Ubuntu 13.2.0-23ubuntu3)
  configuration: --prefix=/usr --extra-version=3ubuntu5 --toolchain=hardened --libdir=/usr/lib/aarch64-linux-gnu --incdir=/usr/include/aarch64-linux-gnu --arch=arm64 --enable-gpl --disable-stripping --disable-omx --enable-gnutls --enable-libaom --enable-libass --enable-libbs2b --enable-libcaca --enable-libcdio --enable-libcodec2 --enable-libdav1d --enable-libflite --enable-libfontconfig --enable-libfreetype --enable-libfribidi --enable-libglslang --enable-libgme --enable-libgsm --enable-libharfbuzz --enable-libmp3lame --enable-libmysofa --enable-libopenjpeg --enable-libopenmpt --enable-libopus --enable-librubberband --enable-libshine --enable-libsnappy --enable-libsoxr --enable-libspeex --enable-libtheora --enable-libtwolame --enable-libvidstab --enable-libvorbis --enable-libvpx --enable-libwebp --enable-libx265 --enable-libxml2 --enable-libxvid --enable-libzimg --enable-openal --enable-opencl --enable-opengl --disable-sndio --enable-libdc1394 --enable-libdrm --enable-libiec61883 --enable-chromaprint --enable-frei0r --enable-ladspa --enable-libbluray --enable-libjack --enable-libpulse --enable-librabbitmq --enable-librist --enable-libsrt --enable-libssh --enable-libsvtav1 --enable-libx264 --enable-libzmq --enable-libzvbi --enable-lv2 --enable-sdl2 --enable-libplacebo --enable-librav1e --enable-pocketsphinx --enable-librsvg --enable-libjxl --enable-shared
  libavutil      58. 29.100 / 58. 29.100
  libavcodec     60. 31.102 / 60. 31.102
  libavformat    60. 16.100 / 60. 16.100
  libavdevice    60.  3.100 / 60.  3.100
  libavfilter     9. 12.100 /  9. 12.100
  libswscale      7.  5.100 /  7.  5.100
  libswresample   4. 12.100 /  4. 12.100
  libpostproc    57.  3.100 / 57.  3.100
Input #0, png_pipe, from '/home/nmaldaner/projetos/timesmkt3/prj/inema/videos/gertran-nostalgia/ortopedista_2026-04-23/imgs/nost01.png':
  Duration: N/A, bitrate: N/A
  Stream #0:0: Video: png, rgb24(pc, gbr/unknown/unknown), 512x512, 30 fps, 30 tbr, 30 tbn
Input #1, png_pipe, from '/home/nmaldaner/projetos/timesmkt3/prj/inema/videos/gertran-nostalgia/ortopedista_2026-04-23/imgs/nost02.png':
  Duration: N/A, bitrate: N/A
  Stream #1:0: Video: png, rgb24(pc, gbr/unknown/unknown), 512x512, 30 fps, 30 tbr, 30 tbn
Input #2, png_pipe, from '/home/nmaldaner/projetos/timesmkt3/prj/inema/videos/gertran-nostalgia/ortopedista_2026-04-23/imgs/nost03.png':
  Duration: N/A, bitrate: N/A
  Stream #2:0: Video: png, rgb24(pc, gbr/unknown/unknown), 512x512, 30 fps, 30 tbr, 30 tbn
Input #3, png_pipe, from '/home/nmaldaner/projetos/timesmkt3/prj/inema/videos/gertran-nostalgia/ortopedista_2026-04-23/imgs/nost04.png':
  Duration: N/A, bitrate: N/A
  Stream #3:0: Video: png, rgb24(pc, gbr/unknown/unknown), 512x512, 30 fps, 30 tbr, 30 tbn
Input #4, png_pipe, from '/home/nmaldaner/projetos/timesmkt3/prj/inema/videos/gertran-nostalgia/ortopedista_2026-04-23/imgs/nost05.png':
  Duration: N/A, bitrate: N/A
  Stream #4:0: Video: png, rgb24(pc, gbr/unknown/unknown), 512x512, 30 fps, 30 tbr, 30 tbn
Input #5, png_pipe, from '/home/nmaldaner/projetos/timesmkt3/prj/inema/videos/gertran-nostalgia/ortopedista_2026-04-23/imgs/nost06.png':
  Duration: N/A, bitrate: N/A
  Stream #5:0: Video: png, rgb24(pc, gbr/unknown/unknown), 512x512, 30 fps, 30 tbr, 30 tbn
Input #6, png_pipe, from '/home/nmaldaner/projetos/timesmkt3/prj/inema/videos/gertran-nostalgia/ortopedista_2026-04-23/imgs/nost07.png':
  Duration: N/A, bitrate: N/A
  Stream #6:0: Video: png, rgb24(pc, gbr/unknown/unknown), 512x512, 30 fps, 30 tbr, 30 tbn
Input #7, png_pipe, from '/home/nmaldaner/projetos/timesmkt3/prj/inema/videos/gertran-nostalgia/ortopedista_2026-04-23/imgs/nost08.png':
  Duration: N/A, bitrate: N/A
  Stream #7:0: Video: png, rgb24(pc, gbr/unknown/unknown), 512x512, 30 fps, 30 tbr, 30 tbn
Input #8, png_pipe, from '/home/nmaldaner/projetos/timesmkt3/prj/inema/videos/gertran-nostalgia/ortopedista_2026-04-23/imgs/nost09.png':
  Duration: N/A, bitrate: N/A
  Stream #8:0: Video: png, rgb24(pc, gbr/unknown/unknown), 512x512, 30 fps, 30 tbr, 30 tbn
Input #9, png_pipe, from '/home/nmaldaner/projetos/timesmkt3/prj/inema/videos/gertran-nostalgia/ortopedista_2026-04-23/imgs/nost10.png':
  Duration: N/A, bitrate: N/A
  Stream #9:0: Video: png, rgb24(pc, gbr/unknown/unknown), 512x512, 30 fps, 30 tbr, 30 tbn
Input #10, png_pipe, from '/home/nmaldaner/projetos/timesmkt3/prj/inema/videos/gertran-nostalgia/ortopedista_2026-04-23/imgs/nost11.png':
  Duration: N/A, bitrate: N/A
  Stream #10:0: Video: png, rgb24(pc, gbr/unknown/unknown), 512x512, 30 fps, 30 tbr, 30 tbn
Input #11, png_pipe, from '/home/nmaldaner/projetos/timesmkt3/prj/inema/videos/gertran-nostalgia/ortopedista_2026-04-23/imgs/nost12.png':
  Duration: N/A, bitrate: N/A
  Stream #11:0: Video: png, rgb24(pc, gbr/unknown/unknown), 512x512, 30 fps, 30 tbr, 30 tbn
Input #12, png_pipe, from '/home/nmaldaner/projetos/timesmkt3/prj/inema/videos/gertran-nostalgia/ortopedista_2026-04-23/imgs/nost13.png':
  Duration: N/A, bitrate: N/A
  Stream #12:0: Video: png, rgb24(pc, gbr/unknown/unknown), 512x512, 30 fps, 30 tbr, 30 tbn
Input #13, png_pipe, from '/home/nmaldaner/projetos/timesmkt3/prj/inema/videos/gertran-nostalgia/ortopedista_2026-04-23/imgs/nost14.png':
  Duration: N/A, bitrate: N/A
  Stream #13:0: Video: png, rgb24(pc, gbr/unknown/unknown), 512x512, 30 fps, 30 tbr, 30 tbn
Input #14, png_pipe, from '/home/nmaldaner/projetos/timesmkt3/prj/inema/videos/gertran-nostalgia/ortopedista_2026-04-23/imgs/nost15.png':
  Duration: N/A, bitrate: N/A
  Stream #14:0: Video: png, rgb24(pc, gbr/unknown/unknown), 512x512, 30 fps, 30 tbr, 30 tbn
Input #15, png_pipe, from '/home/nmaldaner/projetos/timesmkt3/prj/inema/videos/gertran-nostalgia/ortopedista_2026-04-23/imgs/nost16.png':
  Duration: N/A, bitrate: N/A
  Stream #15:0: Video: png, rgb24(pc, gbr/unknown/unknown), 512x512, 30 fps, 30 tbr, 30 tbn
Input #16, png_pipe, from '/home/nmaldaner/projetos/timesmkt3/prj/inema/videos/gertran-nostalgia/ortopedista_2026-04-23/imgs/nost17.png':
  Duration: N/A, bitrate: N/A
  Stream #16:0: Video: png, rgb24(pc, gbr/unknown/unknown), 512x512, 30 fps, 30 tbr, 30 tbn
Input #17, png_pipe, from '/home/nmaldaner/projetos/timesmkt3/prj/inema/videos/gertran-nostalgia/ortopedista_2026-04-23/imgs/nost18.png':
  Duration: N/A, bitrate: N/A
  Stream #17:0: Video: png, rgb24(pc, gbr/unknown/unknown), 512x512, 30 fps, 30 tbr, 30 tbn
Input #18, png_pipe, from '/home/nmaldaner/projetos/timesmkt3/prj/inema/videos/gertran-nostalgia/ortopedista_2026-04-23/imgs/nost19.png':
  Duration: N/A, bitrate: N/A
  Stream #18:0: Video: png, rgb24(pc, gbr/unknown/unknown), 512x512, 30 fps, 30 tbr, 30 tbn
Input #19, png_pipe, from '/home/nmaldaner/projetos/timesmkt3/prj/inema/videos/gertran-nostalgia/ortopedista_2026-04-23/imgs/nost20.png':
  Duration: N/A, bitrate: N/A
  Stream #19:0: Video: png, rgb24(pc, gbr/unknown/unknown), 512x512, 30 fps, 30 tbr, 30 tbn
Input #20, mp3, from '/tmp/musica_video/mulheres/freesound_719036_Melancholy_Background_Piano__-_bpm_112_l.mp3':
  Duration: 00:01:08.60, start: 0.025057, bitrate: 191 kb/s
  Stream #20:0: Audio: mp3, 44100 Hz, stereo, fltp, 191 kb/s
    Metadata:
      encoder         : LAME3.100
    Side data:
      replaygain: track gain - -5.600000, track peak - unknown, album gain - unknown, album peak - unknown, 
Input #21, mp3, from '/tmp/narr/narr-gertran-ortopedista.mp3':
  Metadata:
    encoder         : Lavf60.16.100
  Duration: 00:00:17.81, start: 0.046042, bitrate: 128 kb/s
  Stream #21:0: Audio: mp3, 24000 Hz, mono, fltp, 128 kb/s
Stream mapping:
  Stream #0:0 (png) -> scale:default
  Stream #1:0 (png) -> scale:default
  Stream #2:0 (png) -> scale:default
  Stream #3:0 (png) -> scale:default
  Stream #4:0 (png) -> scale:default
  Stream #5:0 (png) -> scale:default
  Stream #6:0 (png) -> scale:default
  Stream #7:0 (png) -> scale:default
  Stream #8:0 (png) -> scale:default
  Stream #9:0 (png) -> scale:default
  Stream #10:0 (png) -> scale:default
  Stream #11:0 (png) -> scale:default
  Stream #12:0 (png) -> scale:default
  Stream #13:0 (png) -> scale:default
  Stream #14:0 (png) -> scale:default
  Stream #15:0 (png) -> scale:default
  Stream #16:0 (png) -> scale:default
  Stream #17:0 (png) -> scale:default
  Stream #18:0 (png) -> scale:default
  Stream #19:0 (png) -> scale:default
  Stream #20:0 (mp3float) -> atrim:default
  Stream #21:0 (mp3float) -> adelay:default
  drawtext:default -> Stream #0:0 (libx264)
  asetpts:default -> Stream #0:1 (aac)
Press [q] to stop, [?] for help
[libx264 @ 0xbb178344a870] using SAR=1/1
[libx264 @ 0xbb178344a870] using cpu capabilities: ARMv8 NEON
[libx264 @ 0xbb178344a870] profile High, level 4.0, 4:2:0, 8-bit
[libx264 @ 0xbb178344a870] 264 - core 164 r3108 31e19f9 - H.264/MPEG-4 AVC codec - Copyleft 2003-2023 - http://www.videolan.org/x264.html - options: cabac=1 ref=3 deblock=1:0:0 analyse=0x3:0x113 me=hex subme=7 psy=1 psy_rd=1.00:0.00 mixed_ref=1 me_range=16 chroma_me=1 trellis=1 8x8dct=1 cqm=0 deadzone=21,11 fast_pskip=1 chroma_qp_offset=-2 threads=30 lookahead_threads=5 sliced_threads=0 nr=0 decimate=1 interlaced=0 bluray_compat=0 constrained_intra=0 bframes=3 b_pyramid=2 b_adapt=1 b_bias=0 direct=1 weightb=1 open_gop=0 weightp=2 keyint=250 keyint_min=25 scenecut=40 intra_refresh=0 rc_lookahead=40 rc=crf mbtree=1 crf=20.0 qcomp=0.60 qpmin=0 qpmax=69 qpstep=4 ip_ratio=1.40 aq=1:1.00
Output #0, mp4, to '/home/nmaldaner/projetos/timesmkt3/prj/inema/videos/gertran/ortopedista_2026-04-23/video/gertran-ortopedista-31s.mp4':
  Metadata:
    encoder         : Lavf60.16.100
  Stream #0:0: Video: h264 (avc1 / 0x31637661), yuv420p(progressive), 1080x1920 [SAR 1:1 DAR 9:16], q=2-31, 30 fps, 15360 tbn
    Metadata:
      encoder         : Lavc60.31.102 libx264
    Side data:
      cpb: bitrate max/min/avg: 0/0/0 buffer size: 0 vbv_delay: N/A
  Stream #0:1: Audio: aac (LC) (mp4a / 0x6134706D), 44100 Hz, stereo, fltp, 192 kb/s
    Metadata:
      encoder         : Lavc60.31.102 aac
frame=    0 fps=0.0 q=0.0 size=       0kB time=N/A bitrate=N/A speed=N/A    frame=   26 fps= 21 q=26.0 size=       0kB time=00:00:03.27 bitrate=   0.1kbits/s speed=2.63x    frame=  169 fps= 97 q=26.0 size=     768kB time=00:00:08.01 bitrate= 785.4kbits/s speed=4.59x    frame=  315 fps=140 q=26.0 size=    1280kB time=00:00:12.88 bitrate= 813.7kbits/s speed=5.74x    frame=  463 fps=169 q=26.0 size=    1792kB time=00:00:17.78 bitrate= 825.4kbits/s speed=6.48x    frame=  602 fps=185 q=26.0 size=    3072kB time=00:00:22.45 bitrate=1120.8kbits/s speed=6.92x    frame=  746 fps=199 q=26.0 size=    3584kB time=00:00:27.23 bitrate=1078.0kbits/s speed=7.27x    [mp4 @ 0xbb17834498e0] Starting second pass: moving the moov atom to the beginning of the file
[out#0/mp4 @ 0xbb1783449810] video:3924kB audio:740kB subtitle:0kB other streams:0kB global headers:0kB muxing overhead: 0.729821%
frame=  930 fps=223 q=-1.0 Lsize=    4698kB time=00:00:30.99 bitrate=1241.5kbits/s speed=7.44x    
[libx264 @ 0xbb178344a870] frame I:4     Avg QP:10.27  size:143530
[libx264 @ 0xbb178344a870] frame P:244   Avg QP:13.38  size: 13686
[libx264 @ 0xbb178344a870] frame B:682   Avg QP:11.64  size:   152
[libx264 @ 0xbb178344a870] consecutive B-frames:  0.4%  1.9% 10.3% 87.3%
[libx264 @ 0xbb178344a870] mb I  I16..4: 40.4% 46.7% 12.9%
[libx264 @ 0xbb178344a870] mb P  I16..4:  5.0%  4.7%  0.7%  P16..4:  1.5%  0.2%  0.2%  0.0%  0.0%    skip:87.7%
[libx264 @ 0xbb178344a870] mb B  I16..4:  0.0%  0.0%  0.0%  B16..8:  0.5%  0.0%  0.0%  direct: 0.2%  skip:99.2%  L0:29.0% L1:69.7% BI: 1.3%
[libx264 @ 0xbb178344a870] 8x8 transform intra:45.5% inter:79.3%
[libx264 @ 0xbb178344a870] coded y,uvDC,uvAC intra: 41.6% 43.0% 39.3% inter: 0.2% 0.4% 0.0%
[libx264 @ 0xbb178344a870] i16 v,h,dc,p: 89%  6%  1%  5%
[libx264 @ 0xbb178344a870] i8 v,h,dc,ddl,ddr,vr,hd,vl,hu: 17% 29% 21%  5%  6%  5%  6%  5%  7%
[libx264 @ 0xbb178344a870] i4 v,h,dc,ddl,ddr,vr,hd,vl,hu: 26% 25% 14%  5%  8%  6%  6%  4%  5%
[libx264 @ 0xbb178344a870] i8c dc,h,v,p: 73% 13%  9%  5%
[libx264 @ 0xbb178344a870] Weighted P-Frames: Y:0.8% UV:0.8%
[libx264 @ 0xbb178344a870] ref P L0: 82.8%  1.7% 14.1%  1.4%  0.0%
[libx264 @ 0xbb178344a870] ref B L0: 68.4% 31.0%  0.7%
[libx264 @ 0xbb178344a870] ref B L1: 95.5%  4.5%
[libx264 @ 0xbb178344a870] kb/s:1036.74
[aac @ 0xbb178344c1b0] Qavg: 539.936
[gertran ortopedista] ✅ 4.6 MB em 4.4s
